{"title":"Baton Baton Mein (1979) Hindi DvD - Rip - Xvid - E - Sub - { MT ","uid":5859598,"size":1460805714,"categoryP":"video","categoryS":"movies","magnet":"?xt=urn:btih:26f6fc1d208fd5664c4f2c76753a383f0e67d13c&amp;dn=Baton+Baton+Mein+%281979%29+Hindi+DvD+-+Rip+-+Xvid+-+E+-+Sub+-+%7B+MT+&amp;tr=udp%3A%2F%2Ftracker.openbittorrent.com%3A80&amp;tr=udp%3A%2F%2Fopen.demonii.com%3A1337&amp;tr=udp%3A%2F%2Ftracker.coppersurfer.tk%3A6969&amp;tr=udp%3A%2F%2Fexodus.desync.com%3A6969","seeders":0,"leechers":1,"uploader":"amanrulz","files":2,"time":1285916145,"description":"mastitorrents.com\n &lt;a href=&quot;\nhttp://mastitorrents.com/forums/index.php&quot; rel=&quot;nofollow&quot; target=&quot;_NEW&quot;&gt;\nhttp://mastitorrents.com/forums/index.php&lt;/a&gt;\n\nRipper : Rahul\nComplete name : Baton Baton Mein (1979)\nFormat : AVI\nFormat/Info : Audio Video Interleave\nFile size : 1.36 GiB\nDuration : 1h 52mn\nOverall bit rate : 1 726 Kbps\nWriting application : VirtualDubMod 1.5.10.2 (build 2540/release)\nWriting library : VirtualDubMod build 2540/release\n\nVideo\nID : 0\nFormat : MPEG-4 Visual\nFormat profile : Advanced Simple@L5\nFormat settings, BVOP : Yes\nFormat settings, QPel : No\nFormat settings, GMC : No warppoints\nFormat settings, Matrix : Default (H.263)\nMuxing mode : Packed bitstream\nCodec ID : XVID\nCodec ID/Hint : XviD\nDuration : 1h 52mn\nBit rate : 1 330 Kbps\nWidth : 640 pixels\nHeight : 480 pixels\nDisplay aspect ratio : 4:3\nFrame rate : 29.970 fps\nColor space : YUV\nChroma subsampling : 4:2:0\nBit depth : 8 bits\nScan type : Progressive\nBits/(Pixel*Frame) : 0.144\nStream size : 1.05 GiB (77%)\nWriting library : XviD 1.1.2 (UTC 2006-11-01)\n\nAudio\nID : 1\nFormat : AC-3\nFormat/Info : Audio Coding 3\nMode extension : CM (complete main)\nCodec ID : 2000\nDuration : 1h 52mn\nBit rate mode : Constant\nBit rate : 384 Kbps\nChannel(s) : 6 channels\nChannel positions : Front: L C R, Side: L R, LFE\nSampling rate : 48.0 KHz\nBit depth : 16 bits\nStream size : 310 MiB (22%)\nAlignment : Split accross interleaves\nInterleave, duration : 33 ms (1.00 video frame)\nInterleave, preload duration : 500 ms\n","torrent":{"xt":"urn:btih:26f6fc1d208fd5664c4f2c76753a383f0e67d13c","amp;dn":"Baton+Baton+Mein+%281979%29+Hindi+DvD+-+Rip+-+Xvid+-+E+-+Sub+-+%7B+MT+","amp;tr":["udp%3A%2F%2Ftracker.openbittorrent.com%3A80","udp%3A%2F%2Fopen.demonii.com%3A1337","udp%3A%2F%2Ftracker.coppersurfer.tk%3A6969","udp%3A%2F%2Fexodus.desync.com%3A6969"],"infoHash":"26f6fc1d208fd5664c4f2c76753a383f0e67d13c","infoHashBuffer":{"type":"Buffer","data":[38,246,252,29,32,143,213,102,76,79,44,118,117,58,56,63,14,103,209,60]},"announce":[],"urlList":[]}}